<svg width="17" height="15" viewBox="0 0 17 15" fill="none" xmlns="http://www.w3.org/2000/svg">
<path d="M1.667 15C1.20858 15 0.816274 14.8166 0.490098 14.4497C0.163366 14.0822 0 13.6406 0 13.125V10.3125H1.667V13.125H15.003V1.875H1.667V4.6875H0V1.875C0 1.35938 0.163366 0.918125 0.490098 0.55125C0.816274 0.18375 1.20858 0 1.667 0H15.003C15.4614 0 15.854 0.18375 16.1807 0.55125C16.5069 0.918125 16.67 1.35938 16.67 1.875V13.125C16.67 13.6406 16.5069 14.0822 16.1807 14.4497C15.854 14.8166 15.4614 15 15.003 15H1.667ZM7.91825 11.7188L6.75135 10.3594L8.48086 8.4375H0V6.5625H8.48086L6.75135 4.64062L7.91825 3.28125L11.669 7.5L7.91825 11.7188Z" fill="#9DA4AE"/>
</svg>
