<svg width="34" height="35" viewBox="0 0 34 35" fill="none" xmlns="http://www.w3.org/2000/svg">
<path d="M10.1812 31.5824H22.8388L24.6733 24.7824H8.34672L10.1812 31.5824ZM10.1812 34.9824C9.32509 34.9824 8.57603 34.7416 7.93397 34.2599C7.29192 33.7783 6.86388 33.1549 6.64986 32.3899L4.58611 24.7824H28.4339L26.3701 32.3899C26.1561 33.1549 25.7281 33.7783 25.086 34.2599C24.444 34.7416 23.6949 34.9824 22.8388 34.9824H10.1812ZM3.66889 21.3824H29.3511V17.9824H3.66889V21.3824ZM16.51 11.1824C16.51 8.34909 17.5801 5.94076 19.7203 3.95742C21.8605 1.97409 24.4593 0.982422 27.5167 0.982422C27.5167 3.53242 26.6453 5.74242 24.9026 7.61242C23.1599 9.48242 20.9738 10.6158 18.3444 11.0124V14.5824H33.02V21.3824C33.02 22.3174 32.6611 23.1176 31.9432 23.7828C31.2241 24.4492 30.3601 24.7824 29.3511 24.7824H3.66889C2.65994 24.7824 1.79592 24.4492 1.07682 23.7828C0.358939 23.1176 0 22.3174 0 21.3824V14.5824H14.6756V11.0124C12.0462 10.6158 9.86014 9.48242 8.11742 7.61242C6.37469 5.74242 5.50333 3.53242 5.50333 0.982422C8.56074 0.982422 11.1595 1.97409 13.2997 3.95742C15.4399 5.94076 16.51 8.34909 16.51 11.1824Z" fill="#111927"/>
</svg>
