<svg width="23" height="25" viewBox="0 0 23 25" fill="none" xmlns="http://www.w3.org/2000/svg">
<path d="M14.4831 4.06824H9.47788C8.58944 4.06824 8.14523 4.06824 7.75308 4.21578C7.40628 4.34622 7.09042 4.55911 6.82834 4.83902C6.53189 5.15548 6.33334 5.5887 5.93597 6.45534L4.14847 10.3535C3.99264 10.6935 3.91472 10.8635 3.85972 11.0417C3.81086 11.2 3.77556 11.3628 3.7543 11.5281C3.73047 11.7144 3.73047 11.9045 3.73047 12.2846V14.144C3.73047 15.6555 3.73047 16.4113 4.00024 16.9887C4.23748 17.4964 4.61615 17.9094 5.08191 18.1681C5.61129 18.4622 6.30438 18.4622 7.69047 18.4622H16.2705C17.6566 18.4622 18.3497 18.4622 18.8791 18.1681C19.3448 17.9093 19.7234 17.4965 19.9607 16.9887C20.2305 16.4113 20.2305 15.6555 20.2305 14.144V12.2846C20.2305 11.9045 20.2305 11.7144 20.2065 11.5281C20.1854 11.3628 20.1501 11.1999 20.1012 11.0417C20.0463 10.8635 19.9683 10.6935 19.8124 10.3535L18.025 6.45524C17.6277 5.5888 17.429 5.15548 17.1326 4.83892C16.8705 4.55904 16.5546 4.34619 16.2079 4.21578C15.8157 4.06824 15.3715 4.06824 14.4831 4.06824Z" fill="white" fill-opacity="0.01"/>
<path d="M8.83679 18.1911H15.1609L16.0775 14.5931H7.92025L8.83679 18.1911ZM8.83679 19.9901C8.40907 19.9901 8.03482 19.8627 7.71403 19.6078C7.39324 19.353 7.17938 19.0232 7.07245 18.6184L6.04135 14.5931H17.9564L16.9253 18.6184C16.8183 19.0232 16.6045 19.353 16.2837 19.6078C15.9629 19.8627 15.5886 19.9901 15.1609 19.9901H8.83679ZM5.58308 12.7941H18.4146V10.9951H5.58308V12.7941ZM11.9989 7.39712C11.9989 5.89796 12.5335 4.62366 13.6028 3.57425C14.6721 2.52483 15.9705 2.00012 17.4981 2.00012C17.4981 3.34937 17.0627 4.51872 16.192 5.50817C15.3213 6.49762 14.2291 7.09729 12.9154 7.30717V9.19612H20.2477V12.7941C20.2477 13.2888 20.0684 13.7122 19.7097 14.0642C19.3504 14.4168 18.9187 14.5931 18.4146 14.5931H5.58308C5.07898 14.5931 4.64729 14.4168 4.28801 14.0642C3.92934 13.7122 3.75 13.2888 3.75 12.7941V9.19612H11.0823V7.30717C9.76861 7.09729 8.6764 6.49762 7.80569 5.50817C6.93497 4.51872 6.49962 3.34937 6.49962 2.00012C8.02718 2.00012 9.32561 2.52483 10.3949 3.57425C11.4642 4.62366 11.9989 5.89796 11.9989 7.39712Z" fill="#6C737F"/>
</svg>
