<svg width="20" height="21" viewBox="0 0 20 21" fill="none" xmlns="http://www.w3.org/2000/svg">
<path opacity="0.12" d="M2.5 8.96441C2.5 8.48574 2.5 8.24641 2.56167 8.02607C2.61631 7.83085 2.70611 7.64723 2.82667 7.48424C2.96275 7.30024 3.15167 7.15332 3.5295 6.85941L9.18142 2.46349C9.47417 2.23582 9.62058 2.12191 9.78225 2.07816C9.92485 2.03954 10.0752 2.03954 10.2178 2.07816C10.3794 2.12191 10.5258 2.23574 10.8186 2.46349L16.4705 6.85941C16.8483 7.15332 17.0372 7.30024 17.1733 7.48424C17.2938 7.64716 17.3837 7.83082 17.4383 8.02607C17.5 8.24641 17.5 8.48574 17.5 8.96441V14.9935C17.5 15.9269 17.5 16.3936 17.3183 16.7502C17.1586 17.0638 16.9036 17.3187 16.59 17.4785C16.2335 17.6602 15.7667 17.6602 14.8333 17.6602H5.16667C4.23325 17.6602 3.7665 17.6602 3.41 17.4785C3.0964 17.3187 2.84144 17.0638 2.68167 16.7502C2.5 16.3936 2.5 15.9269 2.5 14.9935V8.96441Z" fill="#6366F1"/>
<path d="M6.77167 11.8268C7.14167 13.2645 8.44683 14.3268 10 14.3268C11.5532 14.3268 12.8582 13.2645 13.2283 11.8268M9.18142 2.46349L3.5295 6.85941C3.15167 7.15332 2.96283 7.30024 2.82667 7.48424C2.70611 7.64723 2.61631 7.83085 2.56167 8.02607C2.5 8.24641 2.5 8.48574 2.5 8.96432V14.9935C2.5 15.9269 2.5 16.3936 2.68167 16.7502C2.84142 17.0637 3.09642 17.3187 3.41 17.4785C3.7665 17.6602 4.23333 17.6602 5.16667 17.6602H14.8333C15.7667 17.6602 16.2335 17.6602 16.59 17.4785C16.9036 17.3187 17.1586 17.0638 17.3183 16.7502C17.5 16.3936 17.5 15.9269 17.5 14.9935V8.96441C17.5 8.48574 17.5 8.24641 17.4383 8.02607C17.3837 7.83086 17.2939 7.64725 17.1733 7.48424C17.0372 7.30024 16.8483 7.15332 16.4705 6.85941L10.8186 2.46349C10.5258 2.23582 10.3794 2.12191 10.2177 2.07816C10.0752 2.03954 9.92485 2.03954 9.78225 2.07816C9.62058 2.12191 9.47417 2.23574 9.18142 2.46349Z" stroke="#9DA4AE" stroke-width="1.66667" stroke-linecap="round" stroke-linejoin="round"/>
</svg>
