<svg width="18" height="18" viewBox="0 0 18 18" fill="none" xmlns="http://www.w3.org/2000/svg">
<path d="M16.4805 6.35937L11.1067 10.1978C10.9434 10.3144 10.8618 10.3727 10.7744 10.3903C10.6973 10.4058 10.6174 10.3992 10.544 10.3712C10.4606 10.3395 10.3896 10.2685 10.2478 10.1267L7.71314 7.59204C7.5713 7.45021 7.5003 7.37921 7.41697 7.34754C7.34351 7.31955 7.26362 7.31294 7.18655 7.32846C7.09913 7.34604 7.01755 7.40437 6.85422 7.52096L1.48047 11.3594M5.48047 16.3594H12.4805C13.8806 16.3594 14.5806 16.3594 15.1155 16.0869C15.5859 15.8472 15.9683 15.4648 16.208 14.9944C16.4805 14.4595 16.4805 13.7595 16.4805 12.3594V5.35938C16.4805 3.95921 16.4805 3.25921 16.208 2.72437C15.9683 2.25398 15.5859 1.87154 15.1155 1.63187C14.5806 1.35937 13.8806 1.35938 12.4805 1.35938H5.48047C4.0803 1.35938 3.3803 1.35937 2.84547 1.63187C2.37508 1.87155 1.99265 2.25399 1.75297 2.72437C1.48047 3.25921 1.48047 3.95921 1.48047 5.35938V12.3594C1.48047 13.7595 1.48047 14.4595 1.75297 14.9944C1.99263 15.4648 2.37507 15.8472 2.84547 16.0869C3.3803 16.3594 4.0803 16.3594 5.48047 16.3594Z" stroke="#9DA4AE" stroke-width="1.66667" stroke-linecap="round" stroke-linejoin="round"/>
</svg>
