<svg width="18" height="18" viewBox="0 0 18 18" fill="none" xmlns="http://www.w3.org/2000/svg">
<path d="M5.77167 10.8268C6.14167 12.2645 7.44683 13.3268 9 13.3268C10.5532 13.3268 11.8582 12.2645 12.2283 10.8268M8.18142 1.46349L2.5295 5.85941C2.15167 6.15332 1.96283 6.30024 1.82667 6.48424C1.70611 6.64723 1.61631 6.83085 1.56167 7.02607C1.5 7.24641 1.5 7.48574 1.5 7.96432V13.9935C1.5 14.9269 1.5 15.3936 1.68167 15.7502C1.84142 16.0637 2.09642 16.3187 2.41 16.4785C2.7665 16.6602 3.23333 16.6602 4.16667 16.6602H13.8333C14.7667 16.6602 15.2335 16.6602 15.59 16.4785C15.9036 16.3187 16.1586 16.0638 16.3183 15.7502C16.5 15.3936 16.5 14.9269 16.5 13.9935V7.96441C16.5 7.48574 16.5 7.24641 16.4383 7.02607C16.3837 6.83086 16.2939 6.64725 16.1733 6.48424C16.0372 6.30024 15.8483 6.15332 15.4705 5.85941L9.81858 1.46349C9.52583 1.23582 9.37942 1.12191 9.21775 1.07816C9.07515 1.03954 8.92485 1.03954 8.78225 1.07816C8.62058 1.12191 8.47417 1.23574 8.18142 1.46349Z" stroke="#9DA4AE" stroke-width="1.66667" stroke-linecap="round" stroke-linejoin="round"/>
</svg>
