<svg width="17" height="17" viewBox="0 0 17 17" fill="none" xmlns="http://www.w3.org/2000/svg">
<path d="M9.15974 4.10712H7.50641V7.31664H4.19974V8.9214H7.50641V12.1309H9.15974V8.9214H12.4664V7.31664H9.15974V4.10712ZM8.33307 0.0952148C3.76987 0.0952148 0.0664062 3.68988 0.0664062 8.11902C0.0664062 12.5482 3.76987 16.1428 8.33307 16.1428C12.8963 16.1428 16.5997 12.5482 16.5997 8.11902C16.5997 3.68988 12.8963 0.0952148 8.33307 0.0952148ZM8.33307 14.5381C4.68747 14.5381 1.71974 11.6575 1.71974 8.11902C1.71974 4.58052 4.68747 1.69998 8.33307 1.69998C11.9787 1.69998 14.9464 4.58052 14.9464 8.11902C14.9464 11.6575 11.9787 14.5381 8.33307 14.5381Z" fill="#6C737F"/>
</svg>
