<svg width="19" height="19" viewBox="0 0 19 19" fill="none" xmlns="http://www.w3.org/2000/svg">
<path d="M4.33333 11.8333L6 13.5L9.75 9.75M6 6V3.66667C6 2.73325 6 2.2665 6.18167 1.91C6.34145 1.59641 6.59641 1.34145 6.91 1.18167C7.2665 1 7.73333 1 8.66667 1H15C15.9334 1 16.4002 1 16.7567 1.18167C17.0703 1.34142 17.3252 1.59642 17.485 1.91C17.6667 2.2665 17.6667 2.73333 17.6667 3.66667V10C17.6667 10.9334 17.6667 11.4002 17.485 11.7567C17.3252 12.0703 17.0703 12.3252 16.7567 12.485C16.4002 12.6667 15.9334 12.6667 15 12.6667H12.6667M3.66667 17.6667H10C10.9334 17.6667 11.4002 17.6667 11.7567 17.485C12.0703 17.3252 12.3252 17.0703 12.485 16.7567C12.6667 16.4002 12.6667 15.9334 12.6667 15V8.66667C12.6667 7.73325 12.6667 7.2665 12.485 6.91C12.3252 6.5964 12.0703 6.34144 11.7567 6.18167C11.4002 6 10.9334 6 10 6H3.66667C2.73325 6 2.2665 6 1.91 6.18167C1.59641 6.34145 1.34145 6.59641 1.18167 6.91C1 7.2665 1 7.73333 1 8.66667V15C1 15.9334 1 16.4002 1.18167 16.7567C1.34142 17.0703 1.59642 17.3252 1.91 17.485C2.2665 17.6667 2.73333 17.6667 3.66667 17.6667Z" stroke="#9DA4AE" stroke-width="1.66667" stroke-linecap="round" stroke-linejoin="round"/>
</svg>
